<mxfile host="app.diagrams.net" modified="2023-12-21T13:42:18.560Z" agent="Mozilla/5.0 (Windows NT 10.0; Win64; x64) AppleWebKit/537.36 (KHTML, like Gecko) Chrome/120.0.0.0 Safari/537.36" etag="Q5DLBSJDabmgCRw8Qv0P" version="22.1.11" type="device">
  <diagram name="第 1 页" id="TqKDPVgios2m9M21Ib9q">
    <mxGraphModel dx="4728" dy="2272" grid="1" gridSize="10" guides="1" tooltips="1" connect="1" arrows="1" fold="1" page="1" pageScale="1" pageWidth="1169" pageHeight="827" background="none" math="0" shadow="0">
      <root>
        <mxCell id="0" />
        <mxCell id="1" parent="0" />
        <mxCell id="9he8c93qXu7TokHDavqF-1" value="Patient" style="swimlane;fontStyle=1;align=center;verticalAlign=top;childLayout=stackLayout;horizontal=1;startSize=26;horizontalStack=0;resizeParent=1;resizeParentMax=0;resizeLast=0;collapsible=1;marginBottom=0;whiteSpace=wrap;html=1;fontFamily=Times New Roman;fontSize=14;" parent="1" vertex="1">
          <mxGeometry x="-1599" y="-990" width="430" height="360" as="geometry" />
        </mxCell>
        <mxCell id="9he8c93qXu7TokHDavqF-2" value="&lt;font style=&quot;font-size: 14px;&quot;&gt;        -patientID: int&lt;br style=&quot;font-size: 14px;&quot;&gt;-name: String&amp;nbsp;&lt;br style=&quot;font-size: 14px;&quot;&gt;-phoneNumber: String&amp;nbsp;&lt;br style=&quot;font-size: 14px;&quot;&gt;-address: String&amp;nbsp;&lt;br style=&quot;font-size: 14px;&quot;&gt;-password: String&amp;nbsp;&lt;br style=&quot;font-size: 14px;&quot;&gt;-dateOfBirth: DateTime&amp;nbsp;&lt;br style=&quot;font-size: 14px;&quot;&gt;-gender: String&amp;nbsp;&lt;br style=&quot;font-size: 14px;&quot;&gt;-email: String&amp;nbsp;&lt;br style=&quot;font-size: 14px;&quot;&gt;        -photo: String&amp;nbsp;&lt;/font&gt;" style="text;strokeColor=none;fillColor=none;align=left;verticalAlign=top;spacingLeft=4;spacingRight=4;overflow=hidden;rotatable=0;points=[[0,0.5],[1,0.5]];portConstraint=eastwest;whiteSpace=wrap;html=1;fontFamily=Times New Roman;fontSize=14;" parent="9he8c93qXu7TokHDavqF-1" vertex="1">
          <mxGeometry y="26" width="430" height="160" as="geometry" />
        </mxCell>
        <mxCell id="9he8c93qXu7TokHDavqF-3" value="" style="line;strokeWidth=1;fillColor=none;align=left;verticalAlign=middle;spacingTop=-1;spacingLeft=3;spacingRight=3;rotatable=0;labelPosition=right;points=[];portConstraint=eastwest;strokeColor=inherit;fontFamily=Times New Roman;fontSize=14;" parent="9he8c93qXu7TokHDavqF-1" vertex="1">
          <mxGeometry y="186" width="430" height="8" as="geometry" />
        </mxCell>
        <mxCell id="9he8c93qXu7TokHDavqF-4" value="&lt;font style=&quot;font-size: 14px;&quot;&gt;+register(String name, String phoneNumber, String address, DateTime dateOfBirth, String gender, String email, String password,String photo):&amp;nbsp;Boolean&lt;br style=&quot;font-size: 14px;&quot;&gt;+login(String username, String password): Boolean&lt;br style=&quot;font-size: 14px;&quot;&gt;+logout():&amp;nbsp;void&lt;br style=&quot;font-size: 14px;&quot;&gt;+checkPatientInfo(int pateintID):&amp;nbsp;Patient&lt;br style=&quot;font-size: 14px;&quot;&gt;+updatePatientInfo(String name, String phoneNumber, String address, DateTime dateOfBirth, String gender, String email, String password,String photo):&amp;nbsp;Boolean&lt;br style=&quot;font-size: 14px;&quot;&gt;&lt;/font&gt;&lt;span style=&quot;font-size: 14px;&quot;&gt;&lt;br style=&quot;font-size: 14px;&quot;&gt;&lt;/span&gt;" style="text;strokeColor=none;fillColor=none;align=left;verticalAlign=top;spacingLeft=4;spacingRight=4;overflow=hidden;rotatable=0;points=[[0,0.5],[1,0.5]];portConstraint=eastwest;whiteSpace=wrap;html=1;fontSize=14;fontFamily=Times New Roman;" parent="9he8c93qXu7TokHDavqF-1" vertex="1">
          <mxGeometry y="194" width="430" height="166" as="geometry" />
        </mxCell>
        <mxCell id="9he8c93qXu7TokHDavqF-5" value="&lt;font style=&quot;font-size: 14px;&quot;&gt;Doctor&lt;/font&gt;" style="swimlane;fontStyle=1;align=center;verticalAlign=top;childLayout=stackLayout;horizontal=1;startSize=26;horizontalStack=0;resizeParent=1;resizeParentMax=0;resizeLast=0;collapsible=1;marginBottom=0;whiteSpace=wrap;html=1;fontFamily=Times New Roman;fontSize=14;" parent="1" vertex="1">
          <mxGeometry x="-830" y="-910" width="440" height="340" as="geometry" />
        </mxCell>
        <mxCell id="9he8c93qXu7TokHDavqF-6" value="-doctorID: int&lt;br style=&quot;border-color: var(--border-color); font-size: 14px;&quot;&gt;-doctorName: String&lt;br style=&quot;font-size: 14px;&quot;&gt;-doctorLisence: String&lt;br style=&quot;font-size: 14px;&quot;&gt;-doctorDepartment: String&lt;br style=&quot;font-size: 14px;&quot;&gt;-doctorTel: String&lt;br style=&quot;font-size: 14px;&quot;&gt;-password: String&lt;br style=&quot;font-size: 14px;&quot;&gt;-dateOfBirth: DateTime&amp;nbsp;&lt;br style=&quot;border-color: var(--border-color); font-size: 14px;&quot;&gt;-gender: String&amp;nbsp;&lt;br style=&quot;border-color: var(--border-color); font-size: 14px;&quot;&gt;-email: String&amp;nbsp;&lt;br style=&quot;border-color: var(--border-color); font-size: 14px;&quot;&gt;-photo: String&amp;nbsp;" style="text;strokeColor=none;fillColor=none;align=left;verticalAlign=top;spacingLeft=4;spacingRight=4;overflow=hidden;rotatable=0;points=[[0,0.5],[1,0.5]];portConstraint=eastwest;whiteSpace=wrap;html=1;fontFamily=Times New Roman;fontStyle=0;fontSize=14;" parent="9he8c93qXu7TokHDavqF-5" vertex="1">
          <mxGeometry y="26" width="440" height="174" as="geometry" />
        </mxCell>
        <mxCell id="9he8c93qXu7TokHDavqF-7" value="" style="line;strokeWidth=1;fillColor=none;align=left;verticalAlign=middle;spacingTop=-1;spacingLeft=3;spacingRight=3;rotatable=0;labelPosition=right;points=[];portConstraint=eastwest;strokeColor=inherit;fontFamily=Times New Roman;fontSize=14;" parent="9he8c93qXu7TokHDavqF-5" vertex="1">
          <mxGeometry y="200" width="440" height="8" as="geometry" />
        </mxCell>
        <mxCell id="9he8c93qXu7TokHDavqF-8" value="+login(int&amp;nbsp;doctorID, string&amp;nbsp;password):&amp;nbsp;boolean&lt;br style=&quot;font-size: 14px;&quot;&gt;+logout(int doctorID):&amp;nbsp;void&lt;br style=&quot;font-size: 14px;&quot;&gt;+updateDoctorInfo(int doctorID, string doctorTel, string password, string photo):&amp;nbsp;void&lt;br style=&quot;font-size: 14px;&quot;&gt;+arrangeTest(int patientID):&amp;nbsp;void&lt;br style=&quot;font-size: 14px;&quot;&gt;+discussWithPatient(int patientID): void&lt;br style=&quot;font-size: 14px;&quot;&gt;+checkPayment(billingID): void" style="text;strokeColor=none;fillColor=none;align=left;verticalAlign=middle;spacingLeft=4;spacingRight=4;overflow=hidden;rotatable=0;points=[[0,0.5],[1,0.5]];portConstraint=eastwest;whiteSpace=wrap;html=1;fontSize=14;fontFamily=Times New Roman;" parent="9he8c93qXu7TokHDavqF-5" vertex="1">
          <mxGeometry y="208" width="440" height="132" as="geometry" />
        </mxCell>
        <mxCell id="qhscMPEdZ7NWJM8DnEz1-3" value="Lab Test" style="swimlane;fontStyle=1;align=center;verticalAlign=top;childLayout=stackLayout;horizontal=1;startSize=26;horizontalStack=0;resizeParent=1;resizeParentMax=0;resizeLast=0;collapsible=1;marginBottom=0;whiteSpace=wrap;html=1;fontFamily=Times New Roman;fontSize=14;" parent="1" vertex="1">
          <mxGeometry x="-2010" y="-570" width="420" height="450" as="geometry" />
        </mxCell>
        <mxCell id="qhscMPEdZ7NWJM8DnEz1-4" value="-testID: int&lt;br style=&quot;font-size: 14px;&quot;&gt;-patientID: int&lt;br style=&quot;font-size: 14px;&quot;&gt;-instrumentID : int&lt;br style=&quot;font-size: 14px;&quot;&gt;-technicianID : int&lt;br style=&quot;font-size: 14px;&quot;&gt;-testItems: String&lt;br style=&quot;font-size: 14px;&quot;&gt;-testResult: String&lt;br style=&quot;font-size: 14px;&quot;&gt;-testDate: DateTime&lt;br style=&quot;font-size: 14px;&quot;&gt;-name:&amp;nbsp;String&lt;br style=&quot;font-size: 14px;&quot;&gt;-description: String&lt;br style=&quot;font-size: 14px;&quot;&gt;-status: String" style="text;strokeColor=none;fillColor=none;align=left;verticalAlign=top;spacingLeft=4;spacingRight=4;overflow=hidden;rotatable=0;points=[[0,0.5],[1,0.5]];portConstraint=eastwest;whiteSpace=wrap;html=1;fontFamily=Times New Roman;fontSize=14;" parent="qhscMPEdZ7NWJM8DnEz1-3" vertex="1">
          <mxGeometry y="26" width="420" height="174" as="geometry" />
        </mxCell>
        <mxCell id="qhscMPEdZ7NWJM8DnEz1-5" value="" style="line;strokeWidth=1;fillColor=none;align=left;verticalAlign=middle;spacingTop=-1;spacingLeft=3;spacingRight=3;rotatable=0;labelPosition=right;points=[];portConstraint=eastwest;strokeColor=inherit;fontFamily=Times New Roman;fontSize=14;" parent="qhscMPEdZ7NWJM8DnEz1-3" vertex="1">
          <mxGeometry y="200" width="420" height="8" as="geometry" />
        </mxCell>
        <mxCell id="qhscMPEdZ7NWJM8DnEz1-6" value="+createTest(int patientID, int technicianID, int instrumentID, String testItems, DateTime testDate, name, description): Boolean&lt;br style=&quot;font-size: 14px;&quot;&gt;+recordResults(int testID, String testResult, DateTime testDate): boolean&lt;br style=&quot;border-color: var(--border-color); font-size: 14px;&quot;&gt;+getTest(int testID): Test&lt;br style=&quot;font-size: 14px;&quot;&gt;+getTestsByPatient(int patientID): List[Test]&lt;br style=&quot;font-size: 14px;&quot;&gt;+getTestsByTechnician(int technicianID): List[Test]&lt;br style=&quot;font-size: 14px;&quot;&gt;+updateTest(int testID, String testItems, String testResult, DateTime testDate): Boolean&lt;br style=&quot;font-size: 14px;&quot;&gt;+cancelTest(int testID): Boolean&lt;br style=&quot;font-size: 14px;&quot;&gt;+setStatus(int testID): Boolean&lt;br style=&quot;font-size: 14px;&quot;&gt;+schedulTest(int requestID, int instrumentID): void&lt;br style=&quot;font-size: 14px;&quot;&gt;+processTest(int testID, int technicianID, patientID): Boolean&lt;br style=&quot;font-size: 14px;&quot;&gt;+checkResult(int testID, int PatientID, String testResult)" style="text;strokeColor=none;fillColor=none;align=left;verticalAlign=top;spacingLeft=4;spacingRight=4;overflow=hidden;rotatable=0;points=[[0,0.5],[1,0.5]];portConstraint=eastwest;whiteSpace=wrap;html=1;fontFamily=Times New Roman;fontSize=14;" parent="qhscMPEdZ7NWJM8DnEz1-3" vertex="1">
          <mxGeometry y="208" width="420" height="242" as="geometry" />
        </mxCell>
        <mxCell id="qhscMPEdZ7NWJM8DnEz1-11" value="&lt;font style=&quot;font-size: 14px;&quot;&gt;*&lt;/font&gt;" style="text;html=1;align=center;verticalAlign=middle;resizable=0;points=[];autosize=1;strokeColor=none;fillColor=none;fontFamily=Times New Roman;fontSize=14;" parent="1" vertex="1">
          <mxGeometry x="-1805" y="-36" width="30" height="30" as="geometry" />
        </mxCell>
        <mxCell id="qhscMPEdZ7NWJM8DnEz1-12" value="&lt;font style=&quot;font-size: 14px;&quot;&gt;1&lt;/font&gt;" style="text;html=1;align=center;verticalAlign=middle;resizable=0;points=[];autosize=1;strokeColor=none;fillColor=none;fontFamily=Times New Roman;fontSize=14;" parent="1" vertex="1">
          <mxGeometry x="-1805" y="-110" width="30" height="30" as="geometry" />
        </mxCell>
        <mxCell id="qhscMPEdZ7NWJM8DnEz1-13" value="" style="endArrow=none;html=1;rounded=0;exitX=0.5;exitY=0;exitDx=0;exitDy=0;fontFamily=Times New Roman;fontSize=14;" parent="1" source="qhscMPEdZ7NWJM8DnEz1-46" target="qhscMPEdZ7NWJM8DnEz1-6" edge="1">
          <mxGeometry width="50" height="50" relative="1" as="geometry">
            <mxPoint x="-1800" y="-15" as="sourcePoint" />
            <mxPoint x="-1821" y="-224" as="targetPoint" />
          </mxGeometry>
        </mxCell>
        <mxCell id="qhscMPEdZ7NWJM8DnEz1-14" value="&lt;b style=&quot;font-size: 14px;&quot;&gt;&lt;font style=&quot;font-size: 14px;&quot;&gt;create&lt;/font&gt;&lt;/b&gt;" style="text;html=1;align=center;verticalAlign=middle;resizable=0;points=[];autosize=1;strokeColor=none;fillColor=none;fontFamily=Times New Roman;fontSize=14;" parent="1" vertex="1">
          <mxGeometry x="-1805" y="-80" width="60" height="30" as="geometry" />
        </mxCell>
        <mxCell id="qhscMPEdZ7NWJM8DnEz1-15" value="" style="endArrow=none;html=1;rounded=0;entryX=0;entryY=0.249;entryDx=0;entryDy=0;startArrow=diamondThin;startFill=0;endSize=6;startSize=24;fontFamily=Times New Roman;exitX=0.998;exitY=0.285;exitDx=0;exitDy=0;exitPerimeter=0;entryPerimeter=0;fontSize=14;" parent="1" source="qhscMPEdZ7NWJM8DnEz1-49" target="qhscMPEdZ7NWJM8DnEz1-37" edge="1">
          <mxGeometry width="50" height="50" relative="1" as="geometry">
            <mxPoint x="-1590" y="159" as="sourcePoint" />
            <mxPoint x="-1340" y="214" as="targetPoint" />
            <Array as="points">
              <mxPoint x="-1480" y="243" />
            </Array>
          </mxGeometry>
        </mxCell>
        <mxCell id="qhscMPEdZ7NWJM8DnEz1-16" value="&lt;font style=&quot;font-size: 14px;&quot;&gt;0..*&lt;/font&gt;" style="text;html=1;align=center;verticalAlign=middle;resizable=0;points=[];autosize=1;strokeColor=none;fillColor=none;fontFamily=Times New Roman;fontSize=14;" parent="1" vertex="1">
          <mxGeometry x="-1591" y="120" width="40" height="30" as="geometry" />
        </mxCell>
        <mxCell id="qhscMPEdZ7NWJM8DnEz1-17" value="&lt;font style=&quot;font-size: 14px;&quot;&gt;*&lt;/font&gt;" style="text;html=1;align=center;verticalAlign=middle;resizable=0;points=[];autosize=1;strokeColor=none;fillColor=none;fontFamily=Times New Roman;fontSize=14;" parent="1" vertex="1">
          <mxGeometry x="-1267" y="220" width="30" height="30" as="geometry" />
        </mxCell>
        <mxCell id="qhscMPEdZ7NWJM8DnEz1-21" value="&lt;font style=&quot;font-size: 14px;&quot;&gt;1&lt;/font&gt;" style="text;html=1;align=center;verticalAlign=middle;resizable=0;points=[];autosize=1;strokeColor=none;fillColor=none;fontFamily=Times New Roman;fontSize=14;" parent="1" vertex="1">
          <mxGeometry x="-1029" y="-60" width="30" height="30" as="geometry" />
        </mxCell>
        <mxCell id="qhscMPEdZ7NWJM8DnEz1-22" value="" style="endArrow=none;html=1;rounded=0;startArrow=diamondThin;startFill=0;endSize=6;startSize=24;entryX=0.5;entryY=0;entryDx=0;entryDy=0;fontFamily=Times New Roman;exitX=0.472;exitY=1.02;exitDx=0;exitDy=0;exitPerimeter=0;fontSize=14;" parent="1" source="qhscMPEdZ7NWJM8DnEz1-53" target="qhscMPEdZ7NWJM8DnEz1-34" edge="1">
          <mxGeometry width="50" height="50" relative="1" as="geometry">
            <mxPoint x="-1029" y="-130" as="sourcePoint" />
            <mxPoint x="-1039" as="targetPoint" />
          </mxGeometry>
        </mxCell>
        <mxCell id="qhscMPEdZ7NWJM8DnEz1-23" value="*" style="text;html=1;align=center;verticalAlign=middle;resizable=0;points=[];autosize=1;strokeColor=none;fillColor=none;fontFamily=Times New Roman;fontSize=14;fontStyle=1" parent="1" vertex="1">
          <mxGeometry x="-1029" y="20" width="30" height="30" as="geometry" />
        </mxCell>
        <mxCell id="qhscMPEdZ7NWJM8DnEz1-25" value="" style="endArrow=none;html=1;rounded=0;exitX=1.001;exitY=0.244;exitDx=0;exitDy=0;entryX=0;entryY=0.5;entryDx=0;entryDy=0;startArrow=diamondThin;startFill=0;startSize=24;fontFamily=Times New Roman;exitPerimeter=0;fontSize=14;" parent="1" source="qhscMPEdZ7NWJM8DnEz1-47" target="qhscMPEdZ7NWJM8DnEz1-53" edge="1">
          <mxGeometry width="50" height="50" relative="1" as="geometry">
            <mxPoint x="-1586.2200000000003" y="37.03999999999951" as="sourcePoint" />
            <mxPoint x="-1360" y="-335" as="targetPoint" />
            <Array as="points">
              <mxPoint x="-1450" y="44" />
            </Array>
          </mxGeometry>
        </mxCell>
        <mxCell id="qhscMPEdZ7NWJM8DnEz1-26" value="*" style="text;html=1;align=center;verticalAlign=middle;resizable=0;points=[];autosize=1;strokeColor=none;fillColor=none;fontFamily=Times New Roman;fontSize=14;fontStyle=1" parent="1" vertex="1">
          <mxGeometry x="-1576" y="40" width="30" height="30" as="geometry" />
        </mxCell>
        <mxCell id="qhscMPEdZ7NWJM8DnEz1-27" value="" style="endArrow=none;startArrow=diamondThin;endFill=0;startFill=1;html=1;verticalAlign=bottom;labelBackgroundColor=none;strokeWidth=1;startSize=24;endSize=8;rounded=0;exitX=1;exitY=0.811;exitDx=0;exitDy=0;entryX=0;entryY=0.5;entryDx=0;entryDy=0;fontFamily=Times New Roman;exitPerimeter=0;fontSize=14;" parent="1" source="qhscMPEdZ7NWJM8DnEz1-4" target="qhscMPEdZ7NWJM8DnEz1-51" edge="1">
          <mxGeometry width="160" relative="1" as="geometry">
            <mxPoint x="-1580" y="-497.00000000000045" as="sourcePoint" />
            <mxPoint x="-1350" y="-428" as="targetPoint" />
            <Array as="points">
              <mxPoint x="-1360" y="-405" />
            </Array>
          </mxGeometry>
        </mxCell>
        <mxCell id="qhscMPEdZ7NWJM8DnEz1-28" value="&lt;span style=&quot;font-weight: normal; font-size: 14px;&quot;&gt;1&lt;/span&gt;" style="text;html=1;align=center;verticalAlign=middle;resizable=0;points=[];autosize=1;strokeColor=none;fillColor=none;fontFamily=Times New Roman;fontSize=14;fontStyle=1" parent="1" vertex="1">
          <mxGeometry x="-1259" y="-310" width="30" height="30" as="geometry" />
        </mxCell>
        <mxCell id="qhscMPEdZ7NWJM8DnEz1-29" value="&lt;span style=&quot;font-weight: normal; font-size: 14px;&quot;&gt;1..*&lt;/span&gt;" style="text;html=1;align=center;verticalAlign=middle;resizable=0;points=[];autosize=1;strokeColor=none;fillColor=none;fontFamily=Times New Roman;fontSize=14;fontStyle=1" parent="1" vertex="1">
          <mxGeometry x="-1575" y="-405" width="40" height="30" as="geometry" />
        </mxCell>
        <mxCell id="qhscMPEdZ7NWJM8DnEz1-46" value="&lt;font style=&quot;font-size: 14px;&quot;&gt;Lab Technician&lt;/font&gt;" style="swimlane;fontStyle=1;align=center;verticalAlign=top;childLayout=stackLayout;horizontal=1;startSize=26;horizontalStack=0;resizeParent=1;resizeParentMax=0;resizeLast=0;collapsible=1;marginBottom=0;whiteSpace=wrap;html=1;fontFamily=Times New Roman;fontSize=14;" parent="1" vertex="1">
          <mxGeometry x="-2010" y="-10" width="420" height="230" as="geometry" />
        </mxCell>
        <mxCell id="qhscMPEdZ7NWJM8DnEz1-47" value="&lt;font style=&quot;font-size: 14px;&quot;&gt;&lt;font style=&quot;font-size: 14px;&quot;&gt;-technicianID: int&lt;br style=&quot;font-size: 14px;&quot;&gt;-requestID: int&lt;br style=&quot;font-size: 14px;&quot;&gt;-technicianName: String&lt;br style=&quot;font-size: 14px;&quot;&gt;-technicianLisence: String&lt;br style=&quot;font-size: 14px;&quot;&gt;-&lt;/font&gt;technicianTel: String&lt;br style=&quot;font-size: 14px;&quot;&gt;&lt;/font&gt;&lt;font style=&quot;font-size: 14px;&quot;&gt;-password: String&lt;br style=&quot;font-size: 14px;&quot;&gt;&lt;/font&gt;" style="text;strokeColor=none;fillColor=none;align=left;verticalAlign=top;spacingLeft=4;spacingRight=4;overflow=hidden;rotatable=0;points=[[0,0.5],[1,0.5]];portConstraint=eastwest;whiteSpace=wrap;html=1;fontFamily=Times New Roman;fontSize=14;" parent="qhscMPEdZ7NWJM8DnEz1-46" vertex="1">
          <mxGeometry y="26" width="420" height="114" as="geometry" />
        </mxCell>
        <mxCell id="qhscMPEdZ7NWJM8DnEz1-48" value="" style="line;strokeWidth=1;fillColor=none;align=left;verticalAlign=middle;spacingTop=-1;spacingLeft=3;spacingRight=3;rotatable=0;labelPosition=right;points=[];portConstraint=eastwest;strokeColor=inherit;fontFamily=Times New Roman;fontSize=14;" parent="qhscMPEdZ7NWJM8DnEz1-46" vertex="1">
          <mxGeometry y="140" width="420" height="8" as="geometry" />
        </mxCell>
        <mxCell id="qhscMPEdZ7NWJM8DnEz1-49" value="+login(int technicianID,: String password): Boolean&lt;br style=&quot;font-size: 14px;&quot;&gt;+logout(): Boolean&lt;br style=&quot;font-size: 14px;&quot;&gt;+processRequest(int requestID): Boolean&lt;br style=&quot;font-size: 14px;&quot;&gt;+verifyRequest(int doctorID, int requestID): Boolean" style="text;strokeColor=none;fillColor=none;align=left;verticalAlign=top;spacingLeft=4;spacingRight=4;overflow=hidden;rotatable=0;points=[[0,0.5],[1,0.5]];portConstraint=eastwest;whiteSpace=wrap;html=1;fontFamily=Times New Roman;fontSize=14;" parent="qhscMPEdZ7NWJM8DnEz1-46" vertex="1">
          <mxGeometry y="148" width="420" height="82" as="geometry" />
        </mxCell>
        <mxCell id="qhscMPEdZ7NWJM8DnEz1-50" value="&lt;font style=&quot;font-size: 14px;&quot;&gt;Lab Request&lt;/font&gt;" style="swimlane;fontStyle=1;align=center;verticalAlign=top;childLayout=stackLayout;horizontal=1;startSize=26;horizontalStack=0;resizeParent=1;resizeParentMax=0;resizeLast=0;collapsible=1;marginBottom=0;whiteSpace=wrap;html=1;fontFamily=Times New Roman;fontSize=14;" parent="1" vertex="1">
          <mxGeometry x="-1229" y="-383" width="420" height="326" as="geometry" />
        </mxCell>
        <mxCell id="qhscMPEdZ7NWJM8DnEz1-51" value="-requestID: int&lt;br style=&quot;font-size: 14px;&quot;&gt;-patientID: int&lt;br style=&quot;font-size: 14px;&quot;&gt;-doctorID: int&lt;br style=&quot;font-size: 14px;&quot;&gt;-instrumentID: int&lt;br style=&quot;border-color: var(--border-color); font-size: 14px;&quot;&gt;-testType: String&lt;br style=&quot;font-size: 14px;&quot;&gt;-requestedDate: DateTime&lt;br style=&quot;font-size: 14px;&quot;&gt;-status: String" style="text;strokeColor=none;fillColor=none;align=left;verticalAlign=top;spacingLeft=4;spacingRight=4;overflow=hidden;rotatable=0;points=[[0,0.5],[1,0.5]];portConstraint=eastwest;whiteSpace=wrap;html=1;fontFamily=Times New Roman;fontSize=14;" parent="qhscMPEdZ7NWJM8DnEz1-50" vertex="1">
          <mxGeometry y="26" width="420" height="130" as="geometry" />
        </mxCell>
        <mxCell id="qhscMPEdZ7NWJM8DnEz1-52" value="" style="line;strokeWidth=1;fillColor=none;align=left;verticalAlign=middle;spacingTop=-1;spacingLeft=3;spacingRight=3;rotatable=0;labelPosition=right;points=[];portConstraint=eastwest;strokeColor=inherit;fontFamily=Times New Roman;fontSize=14;" parent="qhscMPEdZ7NWJM8DnEz1-50" vertex="1">
          <mxGeometry y="156" width="420" height="8" as="geometry" />
        </mxCell>
        <mxCell id="qhscMPEdZ7NWJM8DnEz1-53" value="+createRequest(int&amp;nbsp;doctorID, int patientID, int instrumentID, String testType, DateTime requestedDate): Boolean&lt;br style=&quot;font-size: 14px;&quot;&gt;+updateRequest(int requestID): Boolean&lt;br style=&quot;font-size: 14px;&quot;&gt;+getRequestDetails(int requestID): Request&lt;br style=&quot;font-size: 14px;&quot;&gt;+listRequestsByPatient(int patientID): List&amp;lt;Request&amp;gt;&lt;br style=&quot;font-size: 14px;&quot;&gt;+listRequestsByDoctor(int&amp;nbsp;doctorID): List&amp;lt;Request&amp;gt;&lt;br style=&quot;font-size: 14px;&quot;&gt;+cancelRequest(int&amp;nbsp;requestID): Boolean&lt;br style=&quot;font-size: 14px;&quot;&gt;+checkPaymentStatus(int requestID): Boolean&lt;br style=&quot;font-size: 14px;&quot;&gt;+specifyReason(int requestID): Boolean" style="text;strokeColor=none;fillColor=none;align=left;verticalAlign=top;spacingLeft=4;spacingRight=4;overflow=hidden;rotatable=0;points=[[0,0.5],[1,0.5]];portConstraint=eastwest;whiteSpace=wrap;html=1;fontFamily=Times New Roman;fontSize=14;" parent="qhscMPEdZ7NWJM8DnEz1-50" vertex="1">
          <mxGeometry y="164" width="420" height="162" as="geometry" />
        </mxCell>
        <mxCell id="qhscMPEdZ7NWJM8DnEz1-54" value="" style="endArrow=none;html=1;rounded=0;startArrow=none;startFill=0;startSize=24;entryX=0.5;entryY=0;entryDx=0;entryDy=0;fontFamily=Times New Roman;exitX=-0.002;exitY=0.638;exitDx=0;exitDy=0;exitPerimeter=0;fontSize=14;" parent="1" source="9he8c93qXu7TokHDavqF-2" target="qhscMPEdZ7NWJM8DnEz1-3" edge="1">
          <mxGeometry width="50" height="50" relative="1" as="geometry">
            <mxPoint x="-1663" y="-760" as="sourcePoint" />
            <mxPoint x="-2060" y="-694" as="targetPoint" />
            <Array as="points">
              <mxPoint x="-1770" y="-862" />
            </Array>
          </mxGeometry>
        </mxCell>
        <mxCell id="qhscMPEdZ7NWJM8DnEz1-55" value="&lt;b style=&quot;font-size: 14px;&quot;&gt;&lt;font style=&quot;font-size: 14px;&quot;&gt;view&lt;/font&gt;&lt;/b&gt;" style="text;html=1;align=center;verticalAlign=middle;resizable=0;points=[];autosize=1;strokeColor=none;fillColor=none;fontFamily=Times New Roman;fontSize=14;" parent="1" vertex="1">
          <mxGeometry x="-1760" y="-890" width="50" height="30" as="geometry" />
        </mxCell>
        <mxCell id="qhscMPEdZ7NWJM8DnEz1-56" value="&lt;font style=&quot;font-size: 14px;&quot;&gt;1&lt;/font&gt;" style="text;html=1;align=center;verticalAlign=middle;resizable=0;points=[];autosize=1;strokeColor=none;fillColor=none;fontFamily=Times New Roman;fontSize=14;" parent="1" vertex="1">
          <mxGeometry x="-1640" y="-890" width="30" height="30" as="geometry" />
        </mxCell>
        <mxCell id="qhscMPEdZ7NWJM8DnEz1-59" value="" style="endArrow=none;html=1;rounded=0;entryX=0;entryY=0.5;entryDx=0;entryDy=0;startArrow=none;startFill=0;startSize=24;exitX=0;exitY=0.5;exitDx=0;exitDy=0;fontFamily=Times New Roman;fontSize=14;" parent="1" source="9he8c93qXu7TokHDavqF-6" edge="1">
          <mxGeometry width="50" height="50" relative="1" as="geometry">
            <mxPoint x="-925" y="-705" as="sourcePoint" />
            <mxPoint x="-1169" y="-870" as="targetPoint" />
            <Array as="points">
              <mxPoint x="-1000" y="-870" />
            </Array>
          </mxGeometry>
        </mxCell>
        <mxCell id="qhscMPEdZ7NWJM8DnEz1-60" value="&lt;b style=&quot;font-size: 14px;&quot;&gt;&lt;font style=&quot;font-size: 14px;&quot;&gt;meet&lt;/font&gt;&lt;/b&gt;" style="text;html=1;align=center;verticalAlign=middle;resizable=0;points=[];autosize=1;strokeColor=none;fillColor=none;fontFamily=Times New Roman;fontSize=14;" parent="1" vertex="1">
          <mxGeometry x="-1040" y="-900" width="50" height="30" as="geometry" />
        </mxCell>
        <mxCell id="qhscMPEdZ7NWJM8DnEz1-61" value="*" style="text;html=1;align=center;verticalAlign=middle;resizable=0;points=[];autosize=1;strokeColor=none;fillColor=none;fontFamily=Times New Roman;fontSize=14;fontStyle=1" parent="1" vertex="1">
          <mxGeometry x="-1169" y="-900" width="30" height="30" as="geometry" />
        </mxCell>
        <mxCell id="qhscMPEdZ7NWJM8DnEz1-62" value="&lt;font style=&quot;font-size: 14px;&quot;&gt;1..*&lt;/font&gt;" style="text;html=1;align=center;verticalAlign=middle;resizable=0;points=[];autosize=1;strokeColor=none;fillColor=none;fontFamily=Times New Roman;fontSize=14;" parent="1" vertex="1">
          <mxGeometry x="-877" y="-835" width="40" height="30" as="geometry" />
        </mxCell>
        <mxCell id="qhscMPEdZ7NWJM8DnEz1-63" value="1" style="text;html=1;align=center;verticalAlign=middle;resizable=0;points=[];autosize=1;strokeColor=none;fillColor=none;fontFamily=Times New Roman;fontSize=14;" parent="1" vertex="1">
          <mxGeometry x="-648" y="-558" width="30" height="30" as="geometry" />
        </mxCell>
        <mxCell id="qhscMPEdZ7NWJM8DnEz1-64" value="*" style="text;html=1;align=center;verticalAlign=middle;resizable=0;points=[];autosize=1;strokeColor=none;fillColor=none;fontFamily=Times New Roman;fontSize=14;fontStyle=1" parent="1" vertex="1">
          <mxGeometry x="-812" y="-172" width="30" height="30" as="geometry" />
        </mxCell>
        <mxCell id="qhscMPEdZ7NWJM8DnEz1-65" value="" style="endArrow=none;html=1;rounded=0;startArrow=diamondThin;startFill=0;startSize=24;fontFamily=Times New Roman;entryX=1.002;entryY=0.404;entryDx=0;entryDy=0;entryPerimeter=0;fontSize=14;" parent="1" source="9he8c93qXu7TokHDavqF-8" target="qhscMPEdZ7NWJM8DnEz1-53" edge="1">
          <mxGeometry width="50" height="50" relative="1" as="geometry">
            <mxPoint x="-628" y="-339.90999999999997" as="sourcePoint" />
            <mxPoint x="-760" y="-340.90999999999997" as="targetPoint" />
            <Array as="points">
              <mxPoint x="-670" y="-154" />
            </Array>
          </mxGeometry>
        </mxCell>
        <mxCell id="qhscMPEdZ7NWJM8DnEz1-67" value="" style="endArrow=none;html=1;rounded=0;entryX=1;entryY=0.5;entryDx=0;entryDy=0;startArrow=diamondThin;startFill=1;endSize=24;startSize=24;exitX=-0.002;exitY=0.715;exitDx=0;exitDy=0;exitPerimeter=0;fontFamily=Times New Roman;fontSize=14;" parent="1" source="qhscMPEdZ7NWJM8DnEz1-35" target="qhscMPEdZ7NWJM8DnEz1-6" edge="1">
          <mxGeometry width="50" height="50" relative="1" as="geometry">
            <mxPoint x="-1430" y="-150" as="sourcePoint" />
            <mxPoint x="-1380" y="-200" as="targetPoint" />
            <Array as="points">
              <mxPoint x="-1300" y="165" />
            </Array>
          </mxGeometry>
        </mxCell>
        <mxCell id="qhscMPEdZ7NWJM8DnEz1-69" value="&lt;font style=&quot;font-size: 14px;&quot;&gt;1&lt;/font&gt;" style="text;html=1;align=center;verticalAlign=middle;resizable=0;points=[];autosize=1;strokeColor=none;fillColor=none;fontFamily=Times New Roman;fontSize=14;" parent="1" vertex="1">
          <mxGeometry x="-1267" y="134" width="30" height="30" as="geometry" />
        </mxCell>
        <mxCell id="qhscMPEdZ7NWJM8DnEz1-70" value="&lt;font style=&quot;font-size: 14px;&quot;&gt;1..*&lt;/font&gt;" style="text;html=1;align=center;verticalAlign=middle;resizable=0;points=[];autosize=1;strokeColor=none;fillColor=none;fontFamily=Times New Roman;fontSize=14;" parent="1" vertex="1">
          <mxGeometry x="-1591" y="-300" width="40" height="30" as="geometry" />
        </mxCell>
        <mxCell id="RXQMj8knXhtyHbulFyx7-1" value="Billing" style="swimlane;fontStyle=1;align=center;verticalAlign=top;childLayout=stackLayout;horizontal=1;startSize=25.25;horizontalStack=0;resizeParent=1;resizeParentMax=0;resizeLast=0;collapsible=0;marginBottom=0;fontFamily=Times New Roman;fontSize=14;" parent="1" vertex="1">
          <mxGeometry x="-2670" y="-550" width="431" height="308.25" as="geometry" />
        </mxCell>
        <mxCell id="RXQMj8knXhtyHbulFyx7-2" value="-billingID : int" style="text;strokeColor=none;fillColor=none;align=left;verticalAlign=top;spacingLeft=4;spacingRight=4;overflow=hidden;rotatable=0;points=[[0,0.5],[1,0.5]];portConstraint=eastwest;fontFamily=Times New Roman;fontSize=14;" parent="RXQMj8knXhtyHbulFyx7-1" vertex="1">
          <mxGeometry y="25.25" width="431" height="25" as="geometry" />
        </mxCell>
        <mxCell id="RXQMj8knXhtyHbulFyx7-3" value="-patientID : int" style="text;strokeColor=none;fillColor=none;align=left;verticalAlign=top;spacingLeft=4;spacingRight=4;overflow=hidden;rotatable=0;points=[[0,0.5],[1,0.5]];portConstraint=eastwest;fontFamily=Times New Roman;fontSize=14;" parent="RXQMj8knXhtyHbulFyx7-1" vertex="1">
          <mxGeometry y="50.25" width="431" height="25" as="geometry" />
        </mxCell>
        <mxCell id="RXQMj8knXhtyHbulFyx7-4" value="-details : String" style="text;strokeColor=none;fillColor=none;align=left;verticalAlign=top;spacingLeft=4;spacingRight=4;overflow=hidden;rotatable=0;points=[[0,0.5],[1,0.5]];portConstraint=eastwest;fontFamily=Times New Roman;fontSize=14;" parent="RXQMj8knXhtyHbulFyx7-1" vertex="1">
          <mxGeometry y="75.25" width="431" height="25" as="geometry" />
        </mxCell>
        <mxCell id="RXQMj8knXhtyHbulFyx7-5" value="-amountDue : double" style="text;strokeColor=none;fillColor=none;align=left;verticalAlign=top;spacingLeft=4;spacingRight=4;overflow=hidden;rotatable=0;points=[[0,0.5],[1,0.5]];portConstraint=eastwest;fontFamily=Times New Roman;fontSize=14;" parent="RXQMj8knXhtyHbulFyx7-1" vertex="1">
          <mxGeometry y="100.25" width="431" height="25" as="geometry" />
        </mxCell>
        <mxCell id="RXQMj8knXhtyHbulFyx7-6" value="-paymentStatus : String" style="text;strokeColor=none;fillColor=none;align=left;verticalAlign=top;spacingLeft=4;spacingRight=4;overflow=hidden;rotatable=0;points=[[0,0.5],[1,0.5]];portConstraint=eastwest;fontFamily=Times New Roman;fontSize=14;" parent="RXQMj8knXhtyHbulFyx7-1" vertex="1">
          <mxGeometry y="125.25" width="431" height="25" as="geometry" />
        </mxCell>
        <mxCell id="RXQMj8knXhtyHbulFyx7-7" value="-billingDate : DateTime" style="text;strokeColor=none;fillColor=none;align=left;verticalAlign=top;spacingLeft=4;spacingRight=4;overflow=hidden;rotatable=0;points=[[0,0.5],[1,0.5]];portConstraint=eastwest;fontFamily=Times New Roman;fontSize=14;" parent="RXQMj8knXhtyHbulFyx7-1" vertex="1">
          <mxGeometry y="150.25" width="431" height="25" as="geometry" />
        </mxCell>
        <mxCell id="RXQMj8knXhtyHbulFyx7-8" style="line;strokeWidth=1;fillColor=none;align=left;verticalAlign=middle;spacingTop=-1;spacingLeft=3;spacingRight=3;rotatable=0;labelPosition=right;points=[];portConstraint=eastwest;strokeColor=inherit;fontFamily=Times New Roman;fontSize=14;" parent="RXQMj8knXhtyHbulFyx7-1" vertex="1">
          <mxGeometry y="175.25" width="431" height="8" as="geometry" />
        </mxCell>
        <mxCell id="RXQMj8knXhtyHbulFyx7-9" value="+createBill(int patientID, String details, double amountDue) : Boolean" style="text;strokeColor=none;fillColor=none;align=left;verticalAlign=top;spacingLeft=4;spacingRight=4;overflow=hidden;rotatable=0;points=[[0,0.5],[1,0.5]];portConstraint=eastwest;fontFamily=Times New Roman;fontSize=14;" parent="RXQMj8knXhtyHbulFyx7-1" vertex="1">
          <mxGeometry y="183.25" width="431" height="25" as="geometry" />
        </mxCell>
        <mxCell id="RXQMj8knXhtyHbulFyx7-10" value="+getBill(int billingID) : Billing" style="text;strokeColor=none;fillColor=none;align=left;verticalAlign=top;spacingLeft=4;spacingRight=4;overflow=hidden;rotatable=0;points=[[0,0.5],[1,0.5]];portConstraint=eastwest;fontFamily=Times New Roman;fontSize=14;" parent="RXQMj8knXhtyHbulFyx7-1" vertex="1">
          <mxGeometry y="208.25" width="431" height="25" as="geometry" />
        </mxCell>
        <mxCell id="RXQMj8knXhtyHbulFyx7-11" value="+updatePaymentStatus(int billingID, String paymentStatus) : Boolean" style="text;strokeColor=none;fillColor=none;align=left;verticalAlign=top;spacingLeft=4;spacingRight=4;overflow=hidden;rotatable=0;points=[[0,0.5],[1,0.5]];portConstraint=eastwest;fontFamily=Times New Roman;fontSize=14;" parent="RXQMj8knXhtyHbulFyx7-1" vertex="1">
          <mxGeometry y="233.25" width="431" height="25" as="geometry" />
        </mxCell>
        <mxCell id="RXQMj8knXhtyHbulFyx7-12" value="+processPayment(int billingID, double amount) : Boolean" style="text;strokeColor=none;fillColor=none;align=left;verticalAlign=top;spacingLeft=4;spacingRight=4;overflow=hidden;rotatable=0;points=[[0,0.5],[1,0.5]];portConstraint=eastwest;fontFamily=Times New Roman;fontSize=14;" parent="RXQMj8knXhtyHbulFyx7-1" vertex="1">
          <mxGeometry y="258.25" width="431" height="25" as="geometry" />
        </mxCell>
        <mxCell id="RXQMj8knXhtyHbulFyx7-13" value="+List[Billing] getBillsByPatient(int patientID) : List[Billing]" style="text;strokeColor=none;fillColor=none;align=left;verticalAlign=top;spacingLeft=4;spacingRight=4;overflow=hidden;rotatable=0;points=[[0,0.5],[1,0.5]];portConstraint=eastwest;fontFamily=Times New Roman;fontSize=14;" parent="RXQMj8knXhtyHbulFyx7-1" vertex="1">
          <mxGeometry y="283.25" width="431" height="25" as="geometry" />
        </mxCell>
        <mxCell id="RXQMj8knXhtyHbulFyx7-14" value="" style="endArrow=none;html=1;rounded=0;entryX=0;entryY=0.5;entryDx=0;entryDy=0;fontFamily=Times New Roman;exitX=1;exitY=0.5;exitDx=0;exitDy=0;fontSize=14;" parent="1" source="RXQMj8knXhtyHbulFyx7-11" target="qhscMPEdZ7NWJM8DnEz1-47" edge="1">
          <mxGeometry width="50" height="50" relative="1" as="geometry">
            <mxPoint x="-2220" y="63" as="sourcePoint" />
            <mxPoint x="-1860" y="170" as="targetPoint" />
            <Array as="points">
              <mxPoint x="-2140" y="73" />
            </Array>
          </mxGeometry>
        </mxCell>
        <mxCell id="RXQMj8knXhtyHbulFyx7-15" value="&lt;b style=&quot;font-size: 14px;&quot;&gt;&lt;font style=&quot;font-size: 14px;&quot;&gt;Check&lt;/font&gt;&lt;/b&gt;" style="text;html=1;align=center;verticalAlign=middle;resizable=0;points=[];autosize=1;strokeColor=none;fillColor=none;fontFamily=Times New Roman;fontSize=14;" parent="1" vertex="1">
          <mxGeometry x="-2180" y="-110" width="60" height="30" as="geometry" />
        </mxCell>
        <mxCell id="RXQMj8knXhtyHbulFyx7-16" value="&lt;font style=&quot;font-size: 14px;&quot;&gt;1&lt;/font&gt;" style="text;html=1;align=center;verticalAlign=middle;resizable=0;points=[];autosize=1;strokeColor=none;fillColor=none;fontFamily=Times New Roman;fontSize=14;" parent="1" vertex="1">
          <mxGeometry x="-2040" y="40" width="30" height="30" as="geometry" />
        </mxCell>
        <mxCell id="RXQMj8knXhtyHbulFyx7-17" value="&lt;font style=&quot;font-size: 14px;&quot;&gt;1..*&lt;/font&gt;" style="text;html=1;align=center;verticalAlign=middle;resizable=0;points=[];autosize=1;strokeColor=none;fillColor=none;fontFamily=Times New Roman;fontSize=14;" parent="1" vertex="1">
          <mxGeometry x="-2239" y="-319" width="40" height="30" as="geometry" />
        </mxCell>
        <mxCell id="RXQMj8knXhtyHbulFyx7-18" value="" style="endArrow=diamondThin;endFill=0;endSize=24;html=1;rounded=0;exitX=0.517;exitY=0.016;exitDx=0;exitDy=0;exitPerimeter=0;fontFamily=Times New Roman;fontSize=14;entryX=0.004;entryY=0.188;entryDx=0;entryDy=0;entryPerimeter=0;" parent="1" target="9he8c93qXu7TokHDavqF-2" edge="1">
          <mxGeometry width="160" relative="1" as="geometry">
            <mxPoint x="-2420" y="-550" as="sourcePoint" />
            <mxPoint x="-2180" y="-900" as="targetPoint" />
            <Array as="points">
              <mxPoint x="-2070" y="-934" />
            </Array>
          </mxGeometry>
        </mxCell>
        <mxCell id="RXQMj8knXhtyHbulFyx7-19" value="&lt;font style=&quot;font-size: 14px;&quot;&gt;*&lt;/font&gt;" style="text;html=1;align=center;verticalAlign=middle;resizable=0;points=[];autosize=1;strokeColor=none;fillColor=none;fontFamily=Times New Roman;fontSize=14;" parent="1" vertex="1">
          <mxGeometry x="-2450" y="-570" width="30" height="30" as="geometry" />
        </mxCell>
        <mxCell id="RXQMj8knXhtyHbulFyx7-20" value="&lt;font style=&quot;font-size: 14px;&quot;&gt;1&lt;/font&gt;" style="text;html=1;align=center;verticalAlign=middle;resizable=0;points=[];autosize=1;strokeColor=none;fillColor=none;fontFamily=Times New Roman;fontSize=14;" parent="1" vertex="1">
          <mxGeometry x="-1639" y="-961" width="30" height="30" as="geometry" />
        </mxCell>
        <mxCell id="1Xn0gsvwq1vEg3Z3VXm_-1" value="&lt;font style=&quot;font-size: 14px;&quot;&gt;&lt;b style=&quot;font-size: 14px;&quot;&gt;Pay&lt;/b&gt;&lt;/font&gt;" style="text;html=1;align=center;verticalAlign=middle;resizable=0;points=[];autosize=1;strokeColor=none;fillColor=none;fontFamily=Times New Roman;fontSize=14;" parent="1" vertex="1">
          <mxGeometry x="-2085" y="-962" width="50" height="30" as="geometry" />
        </mxCell>
        <mxCell id="qhscMPEdZ7NWJM8DnEz1-34" value="&lt;font style=&quot;font-size: 14px;&quot;&gt;Lab Instrument&lt;/font&gt;" style="swimlane;fontStyle=1;align=center;verticalAlign=top;childLayout=stackLayout;horizontal=1;startSize=26;horizontalStack=0;resizeParent=1;resizeParentMax=0;resizeLast=0;collapsible=1;marginBottom=0;whiteSpace=wrap;html=1;fontFamily=Times New Roman;fontSize=14;" parent="1" vertex="1">
          <mxGeometry x="-1240" y="50" width="420" height="300" as="geometry" />
        </mxCell>
        <mxCell id="qhscMPEdZ7NWJM8DnEz1-35" value="-instrumentID: int&amp;nbsp;&lt;br style=&quot;font-size: 14px;&quot;&gt;-requestID: int&lt;br style=&quot;font-size: 14px;&quot;&gt;-instrumentName: String&lt;br style=&quot;font-size: 14px;&quot;&gt;-instrumentStatus: String&lt;br style=&quot;font-size: 14px;&quot;&gt;-maintenanceDate: DateTime&lt;br style=&quot;font-size: 14px;&quot;&gt;-availableTime: DateTime&lt;br&gt;-maintenanceDetails: String" style="text;strokeColor=none;fillColor=none;align=left;verticalAlign=top;spacingLeft=4;spacingRight=4;overflow=hidden;rotatable=0;points=[[0,0.5],[1,0.5]];portConstraint=eastwest;whiteSpace=wrap;html=1;fontFamily=Times New Roman;fontSize=14;" parent="qhscMPEdZ7NWJM8DnEz1-34" vertex="1">
          <mxGeometry y="26" width="420" height="124" as="geometry" />
        </mxCell>
        <mxCell id="qhscMPEdZ7NWJM8DnEz1-36" value="" style="line;strokeWidth=1;fillColor=none;align=left;verticalAlign=middle;spacingTop=-1;spacingLeft=3;spacingRight=3;rotatable=0;labelPosition=right;points=[];portConstraint=eastwest;strokeColor=inherit;fontFamily=Times New Roman;fontSize=14;" parent="qhscMPEdZ7NWJM8DnEz1-34" vertex="1">
          <mxGeometry y="150" width="420" height="8" as="geometry" />
        </mxCell>
        <mxCell id="qhscMPEdZ7NWJM8DnEz1-37" value="+maintain(int instrumentID, String maintenanceDetails): Boolean&lt;br style=&quot;font-size: 14px;&quot;&gt;+isAvailable(int requestID): List&amp;lt;Instrument&amp;gt;&lt;br style=&quot;font-size: 14px;&quot;&gt;+reportInstrumentIssue(int instrumentID): Boolean&lt;br style=&quot;font-size: 14px;&quot;&gt;+assignToTechnician(int technicianID): Boolean&lt;br style=&quot;font-size: 14px;&quot;&gt;+scheduleMaintenance(int&amp;nbsp;instrumentID, DateTime date): Boolean&lt;br style=&quot;font-size: 14px;&quot;&gt;+updateInstrumentStatus(int&amp;nbsp;instrumentID): Boolean&lt;br style=&quot;font-size: 14px;&quot;&gt;+listInstrument(int requestID): List&amp;lt;Instrument&amp;gt;&lt;br&gt;+bookingInstrument(int instrumentID): Boolean" style="text;strokeColor=none;fillColor=none;align=left;verticalAlign=top;spacingLeft=4;spacingRight=4;overflow=hidden;rotatable=0;points=[[0,0.5],[1,0.5]];portConstraint=eastwest;whiteSpace=wrap;html=1;fontFamily=Times New Roman;fontSize=14;" parent="qhscMPEdZ7NWJM8DnEz1-34" vertex="1">
          <mxGeometry y="158" width="420" height="142" as="geometry" />
        </mxCell>
      </root>
    </mxGraphModel>
  </diagram>
</mxfile>
